<svg id="visual" viewBox="0 0 900 600" width="900" height="600" xmlns="http://www.w3.org/2000/svg" xmlns:xlink="http://www.w3.org/1999/xlink" version="1.1"><path d="M0 91L16.7 85C33.3 79 66.7 67 100 73C133.3 79 166.7 103 200 107C233.3 111 266.7 95 300 87C333.3 79 366.7 79 400 82C433.3 85 466.7 91 500 99C533.3 107 566.7 117 600 120C633.3 123 666.7 119 700 110C733.3 101 766.7 87 800 88C833.3 89 866.7 105 883.3 113L900 121L900 0L883.3 0C866.7 0 833.3 0 800 0C766.7 0 733.3 0 700 0C666.7 0 633.3 0 600 0C566.7 0 533.3 0 500 0C466.7 0 433.3 0 400 0C366.7 0 333.3 0 300 0C266.7 0 233.3 0 200 0C166.7 0 133.3 0 100 0C66.7 0 33.3 0 16.7 0L0 0Z" fill="#045c76"></path><path d="M0 157L16.7 157C33.3 157 66.7 157 100 175C133.3 193 166.7 229 200 245C233.3 261 266.7 257 300 244C333.3 231 366.7 209 400 193C433.3 177 466.7 167 500 167C533.3 167 566.7 177 600 181C633.3 185 666.7 183 700 190C733.3 197 766.7 213 800 221C833.3 229 866.7 229 883.3 229L900 229L900 119L883.3 111C866.7 103 833.3 87 800 86C766.7 85 733.3 99 700 108C666.7 117 633.3 121 600 118C566.7 115 533.3 105 500 97C466.7 89 433.3 83 400 80C366.7 77 333.3 77 300 85C266.7 93 233.3 109 200 105C166.7 101 133.3 77 100 71C66.7 65 33.3 77 16.7 83L0 89Z" fill="#014357"></path><path d="M0 367L16.7 366C33.3 365 66.7 363 100 359C133.3 355 166.7 349 200 350C233.3 351 266.7 359 300 347C333.3 335 366.7 303 400 300C433.3 297 466.7 323 500 339C533.3 355 566.7 361 600 349C633.3 337 666.7 307 700 311C733.3 315 766.7 353 800 365C833.3 377 866.7 363 883.3 356L900 349L900 227L883.3 227C866.7 227 833.3 227 800 219C766.7 211 733.3 195 700 188C666.7 181 633.3 183 600 179C566.7 175 533.3 165 500 165C466.7 165 433.3 175 400 191C366.7 207 333.3 229 300 242C266.7 255 233.3 259 200 243C166.7 227 133.3 191 100 173C66.7 155 33.3 155 16.7 155L0 155Z" fill="#002c3a"></path><path d="M0 499L16.7 508C33.3 517 66.7 535 100 542C133.3 549 166.7 545 200 546C233.3 547 266.7 553 300 553C333.3 553 366.7 547 400 544C433.3 541 466.7 541 500 545C533.3 549 566.7 557 600 550C633.3 543 666.7 521 700 511C733.3 501 766.7 503 800 510C833.3 517 866.7 529 883.3 535L900 541L900 347L883.3 354C866.7 361 833.3 375 800 363C766.7 351 733.3 313 700 309C666.7 305 633.3 335 600 347C566.7 359 533.3 353 500 337C466.7 321 433.3 295 400 298C366.7 301 333.3 333 300 345C266.7 357 233.3 349 200 348C166.7 347 133.3 353 100 357C66.7 361 33.3 363 16.7 364L0 365Z" fill="#032732"></path><path d="M0 601L16.7 601C33.3 601 66.7 601 100 601C133.3 601 166.7 601 200 601C233.3 601 266.7 601 300 601C333.3 601 366.7 601 400 601C433.3 601 466.7 601 500 601C533.3 601 566.7 601 600 601C633.3 601 666.7 601 700 601C733.3 601 766.7 601 800 601C833.3 601 866.7 601 883.3 601L900 601L900 539L883.3 533C866.7 527 833.3 515 800 508C766.7 501 733.3 499 700 509C666.7 519 633.3 541 600 548C566.7 555 533.3 547 500 543C466.7 539 433.3 539 400 542C366.7 545 333.3 551 300 551C266.7 551 233.3 545 200 544C166.7 543 133.3 547 100 540C66.7 533 33.3 515 16.7 506L0 497Z" fill="#06222b"></path></svg>