<svg id="visual" viewBox="0 0 960 540" width="960" height="540" xmlns="http://www.w3.org/2000/svg" xmlns:xlink="http://www.w3.org/1999/xlink" version="1.1"><rect x="0" y="0" width="960" height="540" fill="#001220"></rect><defs><linearGradient id="grad1_0" x1="43.8%" y1="0%" x2="100%" y2="100%"><stop offset="14.444444444444446%" stop-color="#497b46" stop-opacity="1"></stop><stop offset="85.55555555555554%" stop-color="#497b46" stop-opacity="1"></stop></linearGradient></defs><defs><linearGradient id="grad1_1" x1="43.8%" y1="0%" x2="100%" y2="100%"><stop offset="14.444444444444446%" stop-color="#497b46" stop-opacity="1"></stop><stop offset="85.55555555555554%" stop-color="#00474a" stop-opacity="1"></stop></linearGradient></defs><defs><linearGradient id="grad1_2" x1="43.8%" y1="0%" x2="100%" y2="100%"><stop offset="14.444444444444446%" stop-color="#001220" stop-opacity="1"></stop><stop offset="85.55555555555554%" stop-color="#00474a" stop-opacity="1"></stop></linearGradient></defs><defs><linearGradient id="grad2_0" x1="0%" y1="0%" x2="56.3%" y2="100%"><stop offset="14.444444444444446%" stop-color="#497b46" stop-opacity="1"></stop><stop offset="85.55555555555554%" stop-color="#497b46" stop-opacity="1"></stop></linearGradient></defs><defs><linearGradient id="grad2_1" x1="0%" y1="0%" x2="56.3%" y2="100%"><stop offset="14.444444444444446%" stop-color="#00474a" stop-opacity="1"></stop><stop offset="85.55555555555554%" stop-color="#497b46" stop-opacity="1"></stop></linearGradient></defs><defs><linearGradient id="grad2_2" x1="0%" y1="0%" x2="56.3%" y2="100%"><stop offset="14.444444444444446%" stop-color="#00474a" stop-opacity="1"></stop><stop offset="85.55555555555554%" stop-color="#001220" stop-opacity="1"></stop></linearGradient></defs><g transform="translate(960, 0)"><path d="M0 459C-58.3 442.7 -116.5 426.3 -165.7 400C-214.9 373.7 -255.1 337.5 -300.5 300.5C-346 263.5 -396.8 225.9 -424.1 175.7C-451.4 125.4 -455.2 62.7 -459 0L0 0Z" fill="#002c3a"></path><path d="M0 306C-38.8 295.1 -77.7 284.2 -110.5 266.7C-143.3 249.2 -170 225 -200.3 200.3C-230.7 175.7 -264.5 150.6 -282.7 117.1C-300.9 83.6 -303.5 41.8 -306 0L0 0Z" fill="#02624d"></path><path d="M0 153C-19.4 147.6 -38.8 142.1 -55.2 133.3C-71.6 124.6 -85 112.5 -100.2 100.2C-115.3 87.8 -132.3 75.3 -141.4 58.6C-150.5 41.8 -151.7 20.9 -153 0L0 0Z" fill="#497b46"></path></g><g transform="translate(0, 540)"><path d="M0 -459C41 -410.1 82 -361.3 143.9 -347.4C205.7 -333.5 288.4 -354.5 324.6 -324.6C360.7 -294.6 350.3 -213.7 364.9 -151.2C379.6 -88.6 419.3 -44.3 459 0L0 0Z" fill="#002c3a"></path><path d="M0 -306C27.3 -273.4 54.7 -240.9 95.9 -231.6C137.2 -222.3 192.3 -236.3 216.4 -216.4C240.5 -196.4 233.5 -142.5 243.3 -100.8C253.1 -59 279.5 -29.5 306 0L0 0Z" fill="#02624d"></path><path d="M0 -153C13.7 -136.7 27.3 -120.4 48 -115.8C68.6 -111.2 96.1 -118.2 108.2 -108.2C120.2 -98.2 116.8 -71.2 121.6 -50.4C126.5 -29.5 139.8 -14.8 153 0L0 0Z" fill="#497b46"></path></g></svg>